<svg width="150" height="60" xmlns="http://www.w3.org/2000/svg"><defs><clipPath clipPathUnits="userSpaceOnUse" id="a"><path d="M0 841.89h595.28V0H0z" transform="translate(-321.432 -427.664)"/></clipPath><clipPath clipPathUnits="userSpaceOnUse" id="b"><path d="M0 841.89h595.28V0H0z" transform="translate(-296.84 -437.918)"/></clipPath><clipPath clipPathUnits="userSpaceOnUse" id="c"><path d="M0 841.89h595.28V0H0z" transform="translate(-221.364 -413.655)"/></clipPath><clipPath clipPathUnits="userSpaceOnUse" id="d"><path d="M0 841.89h595.28V0H0z" transform="translate(-263.667 -422.724)"/></clipPath></defs><path d="M0 0c4.013 0 7.135.101 9.37.305.338.032.674.065 1.011.103.202.025.404.048.606.076-.025.447-.046.89-.07 1.338A1.898 1.898 0 0 1 9.02 3.623H.991c-.75 0-1.276.141-1.569.429-.301.283-.447.789-.447 1.521v16.182a1.9 1.9 0 0 1-1.901 1.901h-2.373V4.886C-5.299 1.628-3.532 0 0 0" style="fill:#fff;fill-opacity:1;fill-rule:nonzero;stroke:none" transform="matrix(1.33333 0 0 -1.33333 134.34 35.028)" clip-path="url(#a)"/><path d="M0 0c.939 2.711 1.878 5.425 2.815 8.138l.653 2.016H4.57c.026-.115.23-.787.61-2.016C6.117 5.425 7.059 2.711 7.996 0zm8.008 12.273c-.244.751-.856 1.129-1.836 1.129H1.824c-.977 0-1.589-.378-1.836-1.129l-8.444-22.461h3.207c.454 0 .913.116 1.307.348.392.23.716.582.871 1.02l1.846 5.299H9.22l1.849-5.299c.152-.44.478-.79.869-1.02a2.605 2.605 0 0 1 1.309-.348H16.453C13.64-2.7 10.824 4.785 8.008 12.273" style="fill:#fff;fill-opacity:1;fill-rule:nonzero;stroke:none" transform="matrix(1.33333 0 0 -1.33333 101.55 21.356)" clip-path="url(#b)"/><path d="M96.39 48.477H89.5v1.547c0 .72.254 1.23.766 1.532.507.304 1.265.453 2.265.453.977 0 2.133-.164 3.469-.5v1.453c-1.281.289-2.524.437-3.719.437-3.148 0-4.719-1.047-4.719-3.14v-4.063c0-1.258.36-2.156 1.079-2.687.726-.54 1.882-.813 3.468-.813 1.489 0 2.57.262 3.25.781.688.512 1.032 1.418 1.032 2.72zm-1.906-1.265v-1.61c0-.625-.195-1.05-.578-1.28-.375-.227-1.012-.345-1.906-.345-.844 0-1.477.118-1.89.344-.407.219-.61.649-.61 1.281v1.61zm13.121 5.969h-2.109l-2.766-4.047-2.765 4.047H97.87l3.813-5.282-3.61-4.984h2.11l2.546 3.75 2.563-3.75h2.094l-3.61 4.984zm11.227-3.36c0 .625-.094 1.168-.281 1.625-.188.45-.418.797-.688 1.047-.273.25-.637.45-1.094.594-.449.133-.87.219-1.265.25-.399.039-.883.062-1.453.062a6.383 6.383 0 0 1-1.657-.218c-.53-.145-.87-.364-1.015-.657v5.063h-1.906V42.915h1.89v1.094h.016c.156-.875 1.32-1.313 3.5-1.313 1.375 0 2.375.29 3 .86.633.574.953 1.257.953 2.046zm-1.953.235V46.29c0-.945-.211-1.55-.625-1.813-.406-.27-1.137-.406-2.188-.406-1.043 0-1.75.133-2.125.39-.375.25-.562.86-.562 1.829v3.766c0 .867.191 1.421.578 1.671.394.25 1.11.375 2.14.375 1.04 0 1.766-.125 2.172-.375.407-.25.61-.804.61-1.671zm10.41-5.72h-1.063c-.875 0-1.523.118-1.937.345-.418.218-.625.64-.625 1.265v7.235h-1.906V42.915h1.797v1.672c0-.5.304-.938.921-1.313.625-.383 1.254-.578 1.891-.578h.922zm10.355 4.141h-6.89v1.547c0 .72.254 1.23.765 1.532.508.304 1.266.453 2.266.453.977 0 2.133-.164 3.469-.5v1.453c-1.281.289-2.524.437-3.719.437-3.148 0-4.719-1.047-4.719-3.14v-4.063c0-1.258.36-2.156 1.078-2.687.727-.54 1.883-.813 3.47-.813 1.487 0 2.57.262 3.25.781.687.512 1.03 1.418 1.03 2.72zm-1.906-1.265v-1.61c0-.625-.195-1.05-.578-1.28-.375-.227-1.012-.345-1.906-.345-.844 0-1.477.118-1.89.344-.407.219-.61.649-.61 1.281v1.61zm12.43 2.36v.89c0 1.105-.387 1.87-1.156 2.297-.774.425-1.875.64-3.313.64-1.105 0-2.281-.09-3.531-.265V51.68c1.695.261 2.89.39 3.578.39.844 0 1.477-.078 1.906-.234.426-.164.64-.504.64-1.016V49.79c0-.438-.151-.75-.452-.938-.293-.187-.774-.28-1.438-.28h-1.172c-1.074 0-1.886-.22-2.437-.657-.555-.445-.828-1.063-.828-1.844v-.953c0-1.613 1.523-2.422 4.578-2.422.344 0 1.383.059 3.125.172v1.375c-1.219-.195-2.29-.297-3.203-.297-1.024 0-1.715.102-2.078.297-.356.2-.532.531-.532 1v.875c0 .688.63 1.031 1.891 1.031h1.188c2.156 0 3.234.809 3.234 2.422zm0 0" style="fill:#666a6b;fill-opacity:1;fill-rule:nonzero;stroke:none;stroke-width:1.33333" aria-label="expres" transform="translate(.916 1.207)"/><path d="M0 0h24.062c5.538 2.787 8.963 6.67 8.963 11.062 0 8.039-9.578 10.329-9.578 16.723 0 5.889 10.112 10.842 23.171 11.587v.003l-.467-.014c-16.163 0-28.88-7.011-28.88-13.445 0-4.437 3.79-6.622 3.79-11.445C21.061 7.725 12.232 2.006 0 0" style="fill:#fff;fill-opacity:1;fill-rule:nonzero;stroke:none" transform="matrix(1.33333 0 0 -1.33333 .916 53.707)" clip-path="url(#c)"/><path d="M0 0c0-3.32-1.754-6.424-4.793-9.068h17.2c1.058 1.898 1.632 3.927 1.632 6.037 0 15.187-23.504 17.02-23.504 23.484 0 4.242 7.086 8.059 16.955 9.462v.001c-13.109-.926-23.066-5.284-23.066-10.525C-15.576 13.477 0 9.666 0 0" style="fill:#ed1b29;fill-opacity:1;fill-rule:nonzero;stroke:none" transform="matrix(1.33333 0 0 -1.33333 57.32 41.616)" clip-path="url(#d)"/></svg>
