<svg xmlns="http://www.w3.org/2000/svg" width="90" height="36" style="enable-background:new 0 0 90 36" xml:space="preserve"><path d="M60.8 14c.7-2.1 1.5-4.3 2.2-6.4l.6-1.6h.9c0 .1.2.6.5 1.6.7 2.1 1.5 4.3 2.2 6.4h-6.4zm6.4-9.7c-.2-.6-.7-.9-1.5-.9h-3.4c-.8 0-1.3.3-1.5.9l-6.7 17.8h2.5c.4 0 .7-.1 1-.3.3-.2.6-.5.7-.8l1.5-4.2h8.3l1.5 4.2c.1.3.4.6.7.8.3.2.7.3 1 .3h2.5c-2.2-5.9-4.4-11.8-6.6-17.8m13.1 17.8c3.2 0 5.6-.1 7.4-.2.3 0 .5-.1.8-.1.2 0 .3 0 .5-.1 0-.4 0-.7-.1-1.1 0-.8-.7-1.4-1.5-1.4H81c-.6 0-1-.1-1.2-.3-.2-.2-.4-.6-.4-1.2V4.9c0-.8-.7-1.5-1.5-1.5H76v14.9c.1 2.5 1.5 3.8 4.3 3.8M1 33.3h19.1c4.4-2.2 7.1-5.3 7.1-8.8 0-6.4-7.6-8.2-7.6-13.2 0-4.7 8-8.6 18.3-9.2h-.4c-12.8 0-22.9 5.6-22.9 10.6 0 3.5 3 5.2 3 9.1.1 5.4-6.9 9.9-16.6 11.5" style="fill:#fff"/><path d="M34.5 26.1c0 2.6-1.4 5.1-3.8 7.2h13.6c.8-1.5 1.3-3.1 1.3-4.8C45.6 16.5 27 15 27 9.9c0-3.4 5.6-6.4 13.4-7.5-10.4.8-18.3 4.2-18.3 8.4 0 4.6 12.4 7.7 12.4 15.3" style="fill:#ed1b29"/><path d="M58.3 30.9h-4.1v.9c0 .4.2.7.5.9.3.2.8.3 1.3.3.6 0 1.3-.1 2.1-.3v.9c-.8.2-1.5.3-2.2.3-1.9 0-2.8-.6-2.8-1.9v-2.4c0-.7.2-1.3.6-1.6.4-.3 1.1-.5 2.1-.5.9 0 1.5.2 1.9.5.4.3.6.8.6 1.6v1.3zm-1.2-.8v-1c0-.4-.1-.6-.3-.8-.2-.1-.6-.2-1.1-.2-.5 0-.9.1-1.1.2-.2.1-.4.4-.4.8v1h2.9zm7.8 3.6h-1.3L62 31.3l-1.6 2.4h-1.2l2.3-3.1-2.1-3h1.3l1.5 2.2 1.5-2.2h1.2l-2.1 3 2.1 3.1zm6.7-2c0 .4-.1.7-.2 1-.1.3-.2.5-.4.6-.2.1-.4.3-.6.4-.3.1-.5.1-.8.1h-.9c-.3 0-.7 0-1-.1-.3-.1-.5-.2-.6-.4v3H66v-8.7h1.1v.6c.1-.5.8-.8 2.1-.8.8 0 1.4.2 1.8.5.4.3.6.7.6 1.2v2.6zm-1.2.1v-2.2c0-.6-.1-.9-.4-1.1-.2-.2-.7-.2-1.3-.2-.6 0-1 .1-1.3.2-.2.1-.3.5-.3 1.1v2.2c0 .5.1.8.3 1 .2.1.7.2 1.3.2.6 0 1-.1 1.3-.2.3-.1.4-.5.4-1zm6.2-3.4H76c-.5 0-.9.1-1.2.2-.2.1-.4.4-.4.8v4.3h-1.1v-6.1h1.1v1c0-.3.2-.6.5-.8.4-.2.7-.3 1.1-.3h.5l.1.9zm6.2 2.5h-4.1v.9c0 .4.2.7.5.9.3.2.8.3 1.3.3.6 0 1.3-.1 2.1-.3v.9c-.8.2-1.5.3-2.2.3-1.9 0-2.8-.6-2.8-1.9v-2.4c0-.7.2-1.3.6-1.6.4-.3 1.1-.5 2.1-.5.9 0 1.5.2 1.9.5.4.3.6.8.6 1.6v1.3zm-1.2-.8v-1c0-.4-.1-.6-.3-.8-.2-.1-.6-.2-1.1-.2-.5 0-.9.1-1.1.2-.2.1-.4.4-.4.8v1h2.9zm7.4 1.4v.5c0 .7-.2 1.1-.7 1.4-.5.3-1.1.4-2 .4-.7 0-1.4-.1-2.1-.2v-.9c1 .2 1.7.2 2.1.2.5 0 .9 0 1.1-.1.3-.1.4-.3.4-.6v-.6c0-.3-.1-.4-.3-.6h-1.4c-.6 0-1.1-.1-1.4-.4-.3-.3-.5-.6-.5-1.1v-.6c0-1 .9-1.4 2.7-1.4.2 0 .8 0 1.9.1v.8c-.7-.1-1.4-.2-1.9-.2-.6 0-1 .1-1.2.2-.2.1-.3.3-.3.6v.5c0 .4.4.6 1.1.6h.7c1.2 0 1.8.5 1.8 1.4z" style="fill:#666a6b"/></svg>