<svg version="1.1" id="Layer_1" xmlns="http://www.w3.org/2000/svg" x="0" y="0" viewBox="0 0 24 24" style="enable-background:new 0 0 24 24" xml:space="preserve"><style>.st1{fill:#fff}.st2{fill:#c8102e}</style><path d="M-4.3-.2h32.6v24.5H-4.3V-.2z" style="fill:#012169"/><path class="st1" d="M-.5-.2 11.9 9 24.3-.2h4V3l-12.2 9.1 12.2 9.1v3.1h-4.1L12 15.1-.2 24.2h-4.1v-3.1L7.9 12-4.3 3V-.3h3.8z"/><path class="st2" d="m17.3 14.1 11 8.1v2L14.5 14.1h2.8zm-9.4 1 .3 1.8-9.8 7.3h-2.8l12.3-9.1zM28.3-.2V0L15.6 9.5l.1-2.2 10-7.5h2.6zm-32.6 0 12.2 9H4.8L-4.3 2V-.2z"/><path class="st1" d="M8-.2v24.5h8.2V-.2H8zM-4.3 7.9v8.2h32.6V7.9H-4.3z"/><path class="st2" d="M-4.3 9.6v4.9h32.6V9.6H-4.3zM9.6-.2v24.5h4.9V-.2H9.6z"/></svg>