<svg xmlns="http://www.w3.org/2000/svg" viewBox="0 0 160 160" style="enable-background:new 0 0 160 160" xml:space="preserve" fill="currentColor"><path d="M80 112.5c-39.2 0-72-11.9-72.2-25.9 3.8 12.6 33.9 22.1 72.2 22.1 38.3 0 68.3-9.5 72.1-22.1-.1 14-32.9 25.9-72.1 25.9"/><path d="m29.6 74-2.8 21.2h5.5c.4-3.1.7-6.2 1.2-9.3l3.7 9.3h.4l3.8-9.2 1.2 9.2h5.6L45.3 74h-4.4l-3.4 9.5-3.6-9.5h-4.3M51.6 74.1v21.3h10.8l1.4-5.5h-6.9v-2.7h4.5v-5.4H57v-2.4h6.7l-1.1-5.3h-11M106.4 74.1v21.3h11.2l1.6-5.5h-6.8V74.1h-6M121.2 74.1v21.3H132l1.4-5.5h-6.9v-2.7h4.5v-5.4h-4.5v-2.4h6.7l-1.1-5.3h-10.9M81 80.9c-1.7-1-2.8-1.6-4.7-1.6-2.9 0-5.1 2.4-5.1 5.4 0 3.2 1.9 5.7 5.1 5.7.7 0 1.3-.1 2-.3v-3.3h-2.1v-2.9h7.5v10.4c-2.2 1.1-4.7 1.5-7.1 1.5-6.2 0-10.7-4.1-10.7-10.8 0-6.4 4.5-11.3 10.6-11.3 2.5 0 4.5.6 6.7 1.8L81 80.9M100.4 80.9c-1.7-1-2.8-1.6-4.7-1.6-2.9 0-5.1 2.4-5.1 5.4 0 3.2 1.9 5.7 5.1 5.7.7 0 1.3-.1 1.9-.3v-3.3h-2.1v-2.9h7.5v10.4c-2.2 1.1-4.7 1.5-7.1 1.5-6.2 0-10.7-4.1-10.7-10.8 0-6.4 4.5-11.3 10.6-11.3 2.5 0 4.5.6 6.7 1.8l-2.1 5.4"/><path d="M65.1 61.5c0-.7-.1-1.1-.2-1.5-.1-.3-.2-.6-.3-1 0-.2-.1-.4-.1-.6C32.6 61.2 8 71.7 7.9 83.8c3.3-10.9 26.3-19.5 57.2-21.6v-.7zM95.5 58.5c0 .2-.1.4-.1.6-.1.3-.2.6-.3 1-.1.4-.2.8-.2 1.5v.6c31 2.1 53.9 10.7 57.2 21.6-.1-12.1-24.6-22.6-56.6-25.3zM80 48.1c-1.9 0-2.6-.6-3.8-.6-2.2 0-3.9 1.7-3.9 3.8 0 1.3.4 2.3 1.5 3.3l3.8 3.6c.6.6 0 1.3-.6.7L73.1 55s-.9-1.1-2.8-1.1c-2.1 0-4.1 1.5-4.1 3.8 0 1.7.7 1.9.7 3.8 0 2-.6 2.3-.6 3.8 0 2 1.6 4 4 4 2.9 0 4.7-3.6 6.4-5 1.2-1 1.6 0 1.6 1.7s-.2 3.2-.2 3.2H82s-.2-1.6-.2-3.2.3-2.7 1.5-1.7c1.7 1.3 3.5 5 6.4 5 2.5 0 4-2 4-4 0-1.5-.6-1.7-.6-3.8 0-1.9.6-2.2.6-3.8 0-2.3-2-3.8-4-3.8-1.9 0-2.8 1.1-2.8 1.1L83 58.8c-.6.6-1.2-.1-.6-.7l3.9-3.6c1-1 1.5-2 1.5-3.3 0-2.1-1.7-3.8-3.9-3.8-1.3.1-2 .7-3.9.7"/></svg>
