<?xml version="1.0" encoding="utf-8"?>
<!-- Generator: Adobe Illustrator 28.0.0, SVG Export Plug-In . SVG Version: 6.00 Build 0)  -->
<svg version="1.1"
	 id="Layer_1" xmlns:rdf="http://www.w3.org/1999/02/22-rdf-syntax-ns#" xmlns:cc="http://creativecommons.org/ns#" xmlns:dc="http://purl.org/dc/elements/1.1/"
	 xmlns="http://www.w3.org/2000/svg" xmlns:xlink="http://www.w3.org/1999/xlink" x="0px" y="0px" viewBox="0 0 160 160"
	 style="enable-background:new 0 0 160 160;" xml:space="preserve">
<g>
	<path d="M80,112.5c-39.2,0-72-11.9-72.2-25.9c3.8,12.6,33.9,22.1,72.2,22.1c38.3,0,68.3-9.5,72.1-22.1
		C152,100.6,119.2,112.5,80,112.5"/>
	<path d="M29.6,74l-2.8,21.2h5.5c0.4-3.1,0.7-6.2,1.2-9.3l3.7,9.3h0.4l3.8-9.2l1.2,9.2h5.6L45.3,74h-4.4l-3.4,9.5L33.9,74L29.6,74"
		/>
	<path d="M51.6,74.1v21.3h10.8l1.4-5.5l-6.9,0v-2.7h4.5v-5.4H57v-2.4h6.7l-1.1-5.3L51.6,74.1"/>
	<path d="M106.4,74.1v21.3h11.2l1.6-5.5h-6.8V74.1L106.4,74.1"/>
	<path d="M121.2,74.1v21.3H132l1.4-5.5l-6.9,0v-2.7h4.5v-5.4h-4.5v-2.4h6.7l-1.1-5.3L121.2,74.1"/>
	<path d="M81,80.9c-1.7-1-2.8-1.6-4.7-1.6c-2.9,0-5.1,2.4-5.1,5.4c0,3.2,1.9,5.7,5.1,5.7c0.7,0,1.3-0.1,2-0.3v-3.3h-2.1v-2.9h7.5
		v10.4c-2.2,1.1-4.7,1.5-7.1,1.5c-6.2,0-10.7-4.1-10.7-10.8c0-6.4,4.5-11.3,10.6-11.3c2.5,0,4.5,0.6,6.7,1.8L81,80.9"/>
	<path d="M100.4,80.9c-1.7-1-2.8-1.6-4.7-1.6c-2.9,0-5.1,2.4-5.1,5.4c0,3.2,1.9,5.7,5.1,5.7c0.7,0,1.3-0.1,1.9-0.3v-3.3h-2.1v-2.9
		h7.5v10.4c-2.2,1.1-4.7,1.5-7.1,1.5c-6.2,0-10.7-4.1-10.7-10.8c0-6.4,4.5-11.3,10.6-11.3c2.5,0,4.5,0.6,6.7,1.8L100.4,80.9"/>
	<g>
		<path d="M65.1,61.5c0-0.7-0.1-1.1-0.2-1.5c-0.1-0.3-0.2-0.6-0.3-1c0-0.2-0.1-0.4-0.1-0.6C32.6,61.2,8,71.7,7.9,83.8
			c3.3-10.9,26.3-19.5,57.2-21.6C65.1,62,65.1,61.8,65.1,61.5z"/>
		<path d="M95.5,58.5c0,0.2-0.1,0.4-0.1,0.6c-0.1,0.3-0.2,0.6-0.3,1c-0.1,0.4-0.2,0.8-0.2,1.5c0,0.3,0,0.5,0,0.6
			c31,2.1,53.9,10.7,57.2,21.6C152,71.7,127.5,61.2,95.5,58.5z"/>
	</g>
	<path d="M80,48.1c-1.9,0-2.6-0.6-3.8-0.6c-2.2,0-3.9,1.7-3.9,3.8c0,1.3,0.4,2.3,1.5,3.3l3.8,3.6c0.6,0.6,0,1.3-0.6,0.7L73.1,55
		c0,0-0.9-1.1-2.8-1.1c-2.1,0-4.1,1.5-4.1,3.8c0,1.7,0.7,1.9,0.7,3.8c0,2-0.6,2.3-0.6,3.8c0,2,1.6,4,4,4c2.9,0,4.7-3.6,6.4-5
		c1.2-1,1.6,0,1.6,1.7s-0.2,3.2-0.2,3.2H80h2c0,0-0.2-1.6-0.2-3.2s0.3-2.7,1.5-1.7c1.7,1.3,3.5,5,6.4,5c2.5,0,4-2,4-4
		c0-1.5-0.6-1.7-0.6-3.8c0-1.9,0.6-2.2,0.6-3.8c0-2.3-2-3.8-4-3.8c-1.9,0-2.8,1.1-2.8,1.1l-3.9,3.8c-0.6,0.6-1.2-0.1-0.6-0.7
		l3.9-3.6c1-1,1.5-2,1.5-3.3c0-2.1-1.7-3.8-3.9-3.8C82.6,47.5,81.9,48.1,80,48.1"/>
</g>
</svg>
