<?xml version="1.0" encoding="utf-8"?>
<!-- Generator: Adobe Illustrator 28.0.0, SVG Export Plug-In . SVG Version: 6.00 Build 0)  -->
<svg version="1.1" id="Layer_1" xmlns="http://www.w3.org/2000/svg" xmlns:xlink="http://www.w3.org/1999/xlink" x="0px" y="0px"
	 viewBox="0 0 160 160" style="enable-background:new 0 0 160 160;" xml:space="preserve">
<style type="text/css">
	.st0{clip-path:url(#SVGID_00000044892248791882689700000005447145568958797706_);}
</style>
<g id="surface1">
	<g>
		<defs>
			<rect id="SVGID_1_" x="28.8" y="38.7" width="102.3" height="82.8"/>
		</defs>
		<clipPath id="SVGID_00000075131524278104980920000003319613882692686233_">
			<use xlink:href="#SVGID_1_"  style="overflow:visible;"/>
		</clipPath>
		<g style="clip-path:url(#SVGID_00000075131524278104980920000003319613882692686233_);">
			<path d="M80,38.7c-0.9,0-1.8,0.1-2.7,0.2c-3.9,0.5-13.4,3.5-26.5,13.6C43,58.3,35.9,64.5,32.1,69.9c-1.6,2.2-2.4,4.5-2.8,6.2
				c-0.8,3.1-0.7,9.4,2.7,13.8c5.5,7.1,13,13.7,21.1,19.6c1.4,1,10.8,7.7,19,10.6c2.9,1,5.5,1.4,7.8,1.4c3,0,5.5-0.6,7.6-1.3
				c4.7-1.5,13.9-5.9,23.1-13.3c3.9-3.1,16.6-13.2,19.3-20.3c2.6-6.8,0.5-13.3-2-16.6c-13.3-17.2-36.2-28.3-36.2-28.3
				C90.6,41,85.8,38.7,80,38.7 M80,39.9c5.3,0,9.9,2.1,11.1,2.8l0,0l0,0c0.2,0.1,22.8,11.2,35.8,27.9c1.9,2.5,4.5,8.5,1.8,15.5
				c-1.7,4.4-8,11-18.8,19.7l-0.1,0.1c-9,7.2-17.9,11.5-22.7,13.1c-1.6,0.5-4.2,1.2-7.2,1.2c-2.4,0-4.9-0.5-7.4-1.3
				c-8.2-2.9-17.6-9.7-18.7-10.5c-8.9-6.5-15.9-13-20.9-19.3c-3-3.9-3.3-9.8-2.5-12.7c0.4-1.6,1.1-3.8,2.6-5.9
				c3.3-4.6,9.5-10.4,18.4-17.2C66.3,42,75.7,40.3,77.4,40C78.2,39.9,79.1,39.9,80,39.9"/>
		</g>
	</g>
	<g>
		<path d="M107.5,73.8c-0.6,0-1.1,0.5-1.4,1.6c-0.3,1.1-0.5,2.7-0.5,5s0.2,3.9,0.5,5c0.3,1.1,0.8,1.6,1.4,1.6s1.1-0.5,1.4-1.6
			c0.3-1.1,0.5-2.7,0.5-5s-0.2-3.9-0.5-5C108.6,74.3,108.1,73.8,107.5,73.8z"/>
		<path d="M69.2,82c-0.5,0.8-0.7,1.6-0.7,2.7c0,0.7,0.2,1.3,0.5,1.8c0.3,0.5,0.8,0.8,1.5,0.8c0.4,0,0.8-0.1,1.1-0.2
			c0.3-0.1,0.4-0.3,0.5-0.4v-6.2C70.6,80.7,69.7,81.2,69.2,82z"/>
		<path d="M123.8,70.8c-12.6-15-33-25.3-33-25.3c-3.4-1.8-9.7-4.4-15.9-2.4c-14.6,4.7-28.8,17-38.6,27.5c-3.8,4-5.7,11.6-0.5,18.5
			c6.7,8.9,22.8,21.1,34.4,26.4c7,3.2,12.6,2.2,16.6,0.8c4.4-1.5,15.5-7.9,24.1-14.7c3.6-2.9,12-9.8,15-16.2
			C128.8,79.3,126.3,73.7,123.8,70.8z M58.5,75.5c-1,0-1.7,0.2-2.4,0.6c-0.6,0.4-1.2,0.9-1.6,1.6c-0.4,0.7-0.7,1.5-0.9,2.4
			c-0.2,0.9-0.3,1.9-0.3,3v2c0,1.5,0,2.9,0.1,4.1c0.1,1.2,0.2,2.1,0.3,2.7h-9.9c0.2-0.6,0.3-1.5,0.3-2.7c0.1-1.2,0.1-2.6,0.1-4.1
			v-9.2c0-1.5,0-2.9-0.1-4.1c-0.1-1.2-0.2-2.1-0.3-2.7h8.3c0.1,0.3,0.3,0.7,0.4,1.1c0.1,0.4,0.3,1,0.3,1.6c0.7-0.9,1.5-1.6,2.4-2.2
			c0.9-0.6,2-0.9,3.2-0.9c0.2,0,0.5,0,0.8,0c0.3,0,0.5,0.1,0.6,0.1v6.8c-0.2,0-0.4-0.1-0.6-0.1C59.2,75.5,58.9,75.5,58.5,75.5z
			 M73.2,91.8l-0.7-0.9c-0.7,0.4-1.5,0.8-2.4,1.1c-0.9,0.3-1.9,0.4-3.1,0.4c-1,0-2-0.2-2.9-0.6c-0.9-0.4-1.7-0.9-2.3-1.5
			c-0.7-0.6-1.2-1.4-1.6-2.3c-0.4-0.9-0.6-1.8-0.6-2.8c0-1.4,0.2-2.5,0.7-3.4c0.5-0.9,1.2-1.7,2.2-2.4c1-0.7,2.2-1.3,3.6-1.9
			c1.4-0.6,3.1-1.2,4.9-1.8c0-0.7-0.2-1.3-0.6-1.7c-0.4-0.4-1.1-0.7-2-0.7c-0.7,0-1.4,0.1-2.1,0.3c-0.7,0.2-1.3,0.5-1.9,0.8
			c-0.6,0.3-1.1,0.6-1.6,0.9c-0.5,0.3-0.8,0.6-1.1,0.8V69c0.8-0.1,1.8-0.3,3.1-0.4c1.2-0.1,2.5-0.2,3.7-0.2c1.9,0,3.6,0.2,5.2,0.6
			c1.6,0.4,2.9,1,4.1,2c1.9,1.5,2.8,4,2.8,7.5v5.7c0,2,0.2,3.6,0.5,4.9c0.3,1.3,0.6,2.2,0.8,2.8H73.2z M93.4,89.9
			c0,1.1,0,2.1-0.1,2.9c-0.1,0.8-0.2,1.5-0.3,2.1c-0.2,0.6-0.4,1.1-0.7,1.6c-0.3,0.5-0.7,1-1.1,1.4c-0.8,0.9-1.9,1.5-3.3,2
			c-1.4,0.5-2.8,0.7-4.3,0.7c-0.5,0-1.1,0-1.8-0.1c-0.7-0.1-1.4-0.2-1.8-0.4v-5.6c0.3,0.1,0.6,0.2,0.9,0.2c0.3,0,0.7,0.1,1,0.1
			c0.9,0,1.6-0.3,2-0.9s0.6-1.5,0.6-2.6V75.8c0-1.5,0-2.9-0.1-4.1c-0.1-1.2-0.2-2.1-0.3-2.7h9.5V89.9z M93.4,61.8
			c-0.2,0.5-0.6,0.8-1,1.2c-0.4,0.3-0.9,0.6-1.5,0.8c-0.6,0.2-1.2,0.3-1.9,0.3s-1.3-0.1-1.9-0.3c-0.6-0.2-1.1-0.5-1.5-0.8
			c-0.4-0.3-0.7-0.7-1-1.2c-0.2-0.5-0.4-0.9-0.4-1.4c0-0.5,0.1-1,0.4-1.4c0.2-0.5,0.6-0.9,1-1.2c0.4-0.3,0.9-0.6,1.5-0.8
			c0.6-0.2,1.2-0.3,1.9-0.3s1.3,0.1,1.9,0.3c0.6,0.2,1.1,0.5,1.5,0.8c0.4,0.3,0.7,0.7,1,1.2c0.2,0.5,0.4,0.9,0.4,1.4
			C93.8,60.9,93.6,61.4,93.4,61.8z M118.2,85.3c-0.6,1.5-1.4,2.7-2.5,3.8c-1,1-2.3,1.8-3.7,2.4c-1.4,0.6-2.9,0.8-4.6,0.8
			c-1.6,0-3.1-0.3-4.6-0.8c-1.4-0.6-2.6-1.3-3.7-2.4c-1-1-1.9-2.3-2.5-3.8c-0.6-1.5-0.9-3.1-0.9-5c0-1.8,0.3-3.5,0.9-5
			c0.6-1.5,1.4-2.7,2.5-3.8c1-1,2.3-1.8,3.7-2.4c1.4-0.6,2.9-0.8,4.6-0.8c1.6,0,3.1,0.3,4.6,0.8c1.4,0.6,2.6,1.4,3.7,2.4
			c1,1,1.9,2.3,2.5,3.8c0.6,1.5,0.9,3.1,0.9,5C119.1,82.2,118.8,83.8,118.2,85.3z"/>
	</g>
</g>
</svg>
