<svg version="1.1" id="Layer_1" xmlns="http://www.w3.org/2000/svg" xmlns:xlink="http://www.w3.org/1999/xlink" x="0" y="0" viewBox="0 0 160 160" style="enable-background:new 0 0 160 160" xml:space="preserve" fill="currentColor"><style></style><g id="surface1"><defs><path id="SVGID_1_" d="M28.8 38.7h102.3v82.8H28.8z"/></defs><clipPath id="SVGID_00000075131524278104980920000003319613882692686233_"><use xlink:href="#SVGID_1_" style="overflow:visible"/></clipPath><path d="M80 38.7c-.9 0-1.8.1-2.7.2-3.9.5-13.4 3.5-26.5 13.6-7.8 5.8-14.9 12-18.7 17.4-1.6 2.2-2.4 4.5-2.8 6.2-.8 3.1-.7 9.4 2.7 13.8 5.5 7.1 13 13.7 21.1 19.6 1.4 1 10.8 7.7 19 10.6 2.9 1 5.5 1.4 7.8 1.4 3 0 5.5-.6 7.6-1.3 4.7-1.5 13.9-5.9 23.1-13.3 3.9-3.1 16.6-13.2 19.3-20.3 2.6-6.8.5-13.3-2-16.6-13.3-17.2-36.2-28.3-36.2-28.3-1.1-.7-5.9-3-11.7-3m0 1.2c5.3 0 9.9 2.1 11.1 2.8.2.1 22.8 11.2 35.8 27.9 1.9 2.5 4.5 8.5 1.8 15.5-1.7 4.4-8 11-18.8 19.7l-.1.1c-9 7.2-17.9 11.5-22.7 13.1-1.6.5-4.2 1.2-7.2 1.2-2.4 0-4.9-.5-7.4-1.3-8.2-2.9-17.6-9.7-18.7-10.5-8.9-6.5-15.9-13-20.9-19.3-3-3.9-3.3-9.8-2.5-12.7.4-1.6 1.1-3.8 2.6-5.9 3.3-4.6 9.5-10.4 18.4-17.2 14.9-11.3 24.3-13 26-13.3.8-.1 1.7-.1 2.6-.1"/><g><path d="M107.5 73.8c-.6 0-1.1.5-1.4 1.6-.3 1.1-.5 2.7-.5 5s.2 3.9.5 5 .8 1.6 1.4 1.6 1.1-.5 1.4-1.6c.3-1.1.5-2.7.5-5s-.2-3.9-.5-5-.8-1.6-1.4-1.6zM69.2 82c-.5.8-.7 1.6-.7 2.7 0 .7.2 1.3.5 1.8s.8.8 1.5.8c.4 0 .8-.1 1.1-.2.3-.1.4-.3.5-.4v-6.2c-1.5.2-2.4.7-2.9 1.5z"/><path d="M123.8 70.8c-12.6-15-33-25.3-33-25.3-3.4-1.8-9.7-4.4-15.9-2.4-14.6 4.7-28.8 17-38.6 27.5-3.8 4-5.7 11.6-.5 18.5 6.7 8.9 22.8 21.1 34.4 26.4 7 3.2 12.6 2.2 16.6.8 4.4-1.5 15.5-7.9 24.1-14.7 3.6-2.9 12-9.8 15-16.2 2.9-6.1.4-11.7-2.1-14.6zm-65.3 4.7c-1 0-1.7.2-2.4.6-.6.4-1.2.9-1.6 1.6-.4.7-.7 1.5-.9 2.4-.2.9-.3 1.9-.3 3v2c0 1.5 0 2.9.1 4.1.1 1.2.2 2.1.3 2.7h-9.9c.2-.6.3-1.5.3-2.7.1-1.2.1-2.6.1-4.1v-9.2c0-1.5 0-2.9-.1-4.1-.1-1.2-.2-2.1-.3-2.7h8.3c.1.3.3.7.4 1.1.1.4.3 1 .3 1.6.7-.9 1.5-1.6 2.4-2.2.9-.6 2-.9 3.2-.9h.8c.3 0 .5.1.6.1v6.8c-.2 0-.4-.1-.6-.1h-.7zm14.7 16.3-.7-.9c-.7.4-1.5.8-2.4 1.1-.9.3-1.9.4-3.1.4-1 0-2-.2-2.9-.6-.9-.4-1.7-.9-2.3-1.5-.7-.6-1.2-1.4-1.6-2.3-.4-.9-.6-1.8-.6-2.8 0-1.4.2-2.5.7-3.4.5-.9 1.2-1.7 2.2-2.4 1-.7 2.2-1.3 3.6-1.9 1.4-.6 3.1-1.2 4.9-1.8 0-.7-.2-1.3-.6-1.7-.4-.4-1.1-.7-2-.7-.7 0-1.4.1-2.1.3-.7.2-1.3.5-1.9.8-.6.3-1.1.6-1.6.9-.5.3-.8.6-1.1.8V69c.8-.1 1.8-.3 3.1-.4 1.2-.1 2.5-.2 3.7-.2 1.9 0 3.6.2 5.2.6 1.6.4 2.9 1 4.1 2 1.9 1.5 2.8 4 2.8 7.5v5.7c0 2 .2 3.6.5 4.9.3 1.3.6 2.2.8 2.8h-8.7zm20.2-1.9c0 1.1 0 2.1-.1 2.9-.1.8-.2 1.5-.3 2.1-.2.6-.4 1.1-.7 1.6-.3.5-.7 1-1.1 1.4-.8.9-1.9 1.5-3.3 2s-2.8.7-4.3.7c-.5 0-1.1 0-1.8-.1s-1.4-.2-1.8-.4v-5.6c.3.1.6.2.9.2.3 0 .7.1 1 .1.9 0 1.6-.3 2-.9s.6-1.5.6-2.6V75.8c0-1.5 0-2.9-.1-4.1-.1-1.2-.2-2.1-.3-2.7h9.5v20.9zm0-28.1c-.2.5-.6.8-1 1.2-.4.3-.9.6-1.5.8-.6.2-1.2.3-1.9.3s-1.3-.1-1.9-.3c-.6-.2-1.1-.5-1.5-.8-.4-.3-.7-.7-1-1.2-.2-.5-.4-.9-.4-1.4 0-.5.1-1 .4-1.4.2-.5.6-.9 1-1.2.4-.3.9-.6 1.5-.8.6-.2 1.2-.3 1.9-.3s1.3.1 1.9.3c.6.2 1.1.5 1.5.8.4.3.7.7 1 1.2.2.5.4.9.4 1.4 0 .5-.2 1-.4 1.4zm24.8 23.5c-.6 1.5-1.4 2.7-2.5 3.8-1 1-2.3 1.8-3.7 2.4-1.4.6-2.9.8-4.6.8-1.6 0-3.1-.3-4.6-.8-1.4-.6-2.6-1.3-3.7-2.4-1-1-1.9-2.3-2.5-3.8-.6-1.5-.9-3.1-.9-5 0-1.8.3-3.5.9-5 .6-1.5 1.4-2.7 2.5-3.8 1-1 2.3-1.8 3.7-2.4 1.4-.6 2.9-.8 4.6-.8 1.6 0 3.1.3 4.6.8 1.4.6 2.6 1.4 3.7 2.4 1 1 1.9 2.3 2.5 3.8.6 1.5.9 3.1.9 5s-.3 3.5-.9 5z"/></g></g></svg>
