<svg xmlns="http://www.w3.org/2000/svg" viewBox="0 0 160 160" style="enable-background:new 0 0 160 160" xml:space="preserve" fill="currentColor"><path d="M147.6 68.2c-1.8-10.6-33.7-13.9-71.2-7.4-15.7 2.7-30 6.8-41 11.3 1.7 0 3 .4 3.7 1.2.6.6.9 1.4.9 2.4v1.1h-3.7v-.9c0-.8-.5-1.3-1.3-1.3-.7 0-1.1.3-1.3.9v.7c.4 1.6 5.9 2.6 6.4 5.6.1.4.2 1.2 0 2.4-.3 2.4-2.4 3.3-5.1 3.3-3.7 0-5.3-1.8-5.3-4.2v-1.2h3.9v1.4c0 .8.6 1.3 1.4 1.3.8 0 1.2-.3 1.4-.9.1-.3.1-.7 0-1-.7-1.8-5.8-2.7-6.5-5.6-.1-.7-.2-1.2 0-1.9.1-.4.2-.7.3-1C18 80 10.8 86.4 11.8 91.8c1.9 10.6 33.7 13.9 71.2 7.4 16.5-2.9 31.3-7.2 42.6-12h-.5c-2.6 0-4.9-1-5.1-3.6 0-.5 0-.7-.1-.9v-6c0-.3 0-.7.1-1 .3-2.5 2.3-3.6 5.1-3.6 2.2 0 4.8.6 5.1 3.6v1.5h-3.7v-1.3c-.1-.3-.3-1-1.4-1-1 0-1.3.7-1.4 1 0 .2-.1.4-.1.7v7.1c0 .1.2 1 1.4 1s1.4-.9 1.4-1v-2.5h-1.5V79h5.2v3.9c0 .3 0 .5-.1.9-.1.7-.3 1.3-.6 1.8 12.2-5.8 19.1-12 18.2-17.4zM50.4 87l-1.9-12.8h-.1L46.5 87h-4l2.7-14.4h6.5L54.3 87h-3.9zm19 0-.1-12.5h-.1L66.9 87h-3.7l-2.3-12.5h-.1L60.7 87H57l.3-14.4h5.9L65 83.3h.1l1.7-10.7h5.9l.4 14.4h-3.7zm17.4-2.8c-.4 2.8-3.1 3.3-5.1 3.3-3.2 0-5.2-1.4-5.2-4.2v-1.1h3.9v1.4c0 .8.5 1.2 1.4 1.2.7 0 1.2-.3 1.3-.9.1-.3.1-.7 0-1-.7-1.8-5.8-2.7-6.4-5.6-.1-.7-.2-1.2 0-1.9.4-2.6 3-3.2 5-3.2 1.8 0 3.2.4 3.9 1.2.6.6.9 1.4.9 2.4v1h-3.6v-.9c0-.8-.5-1.2-1.3-1.2-.7 0-1.1.3-1.3.9v.7c.4 1.6 5.8 2.6 6.4 5.5.2.4.3 1.2.1 2.4zm13.5-1.3v1c-.2 2.4-1.9 3.6-5 3.6s-4.8-1.2-5.1-3.6V72.6h3.7v11.2c0 .2.3 1 1.3 1s1.3-.8 1.3-1V72.6h3.7v10.3zm16 3.9h-5.2l-3.5-11.4h-.1l.2 11.4h-3.6V72.6h5.4l3.2 11h.1l-.2-11h3.6l.1 14.2z"/></svg>
