<?xml version="1.0" encoding="utf-8"?>
<!-- Generator: Adobe Illustrator 28.0.0, SVG Export Plug-In . SVG Version: 6.00 Build 0)  -->
<svg version="1.1" id="Layer_1" xmlns="http://www.w3.org/2000/svg" xmlns:xlink="http://www.w3.org/1999/xlink" x="0px" y="0px"
	 viewBox="0 0 160 160" style="enable-background:new 0 0 160 160;" xml:space="preserve">
<path d="M147.6,68.2c-1.8-10.6-33.7-13.9-71.2-7.4c-15.7,2.7-30,6.8-41,11.3c1.7,0,3,0.4,3.7,1.2c0.6,0.6,0.9,1.4,0.9,2.4v1.1h-3.7
	v-0.9c0-0.8-0.5-1.3-1.3-1.3c-0.7,0-1.1,0.3-1.3,0.9c0,0.2,0,0.5,0,0.7c0.4,1.6,5.9,2.6,6.4,5.6c0.1,0.4,0.2,1.2,0,2.4
	c-0.3,2.4-2.4,3.3-5.1,3.3c-3.7,0-5.3-1.8-5.3-4.2l0-1.2h3.9l0,1.4c0,0.8,0.6,1.3,1.4,1.3c0.8,0,1.2-0.3,1.4-0.9
	c0.1-0.3,0.1-0.7,0-1c-0.7-1.8-5.8-2.7-6.5-5.6c-0.1-0.7-0.2-1.2,0-1.9c0.1-0.4,0.2-0.7,0.3-1C18,80,10.8,86.4,11.8,91.8
	c1.9,10.6,33.7,13.9,71.2,7.4c16.5-2.9,31.3-7.2,42.6-12c-0.2,0-0.3,0-0.5,0c-2.6,0-4.9-1-5.1-3.6c0-0.5,0-0.7-0.1-0.9l0-6
	c0-0.3,0-0.7,0.1-1c0.3-2.5,2.3-3.6,5.1-3.6c2.2,0,4.8,0.6,5.1,3.6c0,0.4,0,0.8,0,0.9v0.6h-3.7v-0.8c0,0,0-0.3,0-0.5
	c-0.1-0.3-0.3-1-1.4-1c-1,0-1.3,0.7-1.4,1c0,0.2-0.1,0.4-0.1,0.7v6.6c0,0.2,0,0.4,0,0.5c0,0.1,0.2,1,1.4,1c1.2,0,1.4-0.9,1.4-1
	c0-0.2,0-0.4,0-0.5v-2h-1.5v-2.2h5.2v3.9c0,0.3,0,0.5-0.1,0.9c-0.1,0.7-0.3,1.3-0.6,1.8C141.6,79.8,148.5,73.6,147.6,68.2z M50.4,87
	l-1.9-12.8h-0.1L46.5,87h-4l2.7-14.4h6.5L54.3,87C54.3,87,50.4,87,50.4,87z M69.4,87l-0.1-12.5h-0.1L66.9,87h-3.7l-2.3-12.5h-0.1
	L60.7,87h-3.7l0.3-14.4h5.9L65,83.3h0.1l1.7-10.7h5.9L73.1,87H69.4z M86.8,84.2c-0.4,2.8-3.1,3.3-5.1,3.3c-3.2,0-5.2-1.4-5.2-4.2
	l0-1.1h3.9l0,1.4c0,0.8,0.5,1.2,1.4,1.2c0.7,0,1.2-0.3,1.3-0.9c0.1-0.3,0.1-0.7,0-1c-0.7-1.8-5.8-2.7-6.4-5.6
	c-0.1-0.7-0.2-1.2,0-1.9c0.4-2.6,3-3.2,5-3.2c1.8,0,3.2,0.4,3.9,1.2c0.6,0.6,0.9,1.4,0.9,2.4v1h-3.6v-0.9c0-0.8-0.5-1.2-1.3-1.2
	c-0.7,0-1.1,0.3-1.3,0.9c0,0.2,0,0.5,0,0.7c0.4,1.6,5.8,2.6,6.4,5.5C86.9,82.2,87,83,86.8,84.2z M100.3,82.9c0,0.3,0,0.8,0,1
	c-0.2,2.4-1.9,3.6-5,3.6c-3.1,0-4.8-1.2-5.1-3.6c0-0.3,0-0.6,0-0.9V72.6h3.7v10.7c0,0.2,0,0.4,0,0.5c0,0.2,0.3,1,1.3,1
	c1,0,1.3-0.8,1.3-1c0-0.1,0-0.3,0-0.5V72.6h3.7V82.9z M116.3,86.8h-5.2l-3.5-11.4h-0.1l0.2,11.4h-3.6V72.6h5.4l3.2,11h0.1l-0.2-11
	h3.6L116.3,86.8L116.3,86.8z"/>
</svg>
