<svg version="1.1" id="Layer_1" xmlns="http://www.w3.org/2000/svg" x="0" y="0" viewBox="0 0 150 150" style="enable-background:new 0 0 150 150" xml:space="preserve" fill="currentColor" stroke="currentColor"><style>.st1{fill:none;stroke-width:4;stroke-miterlimit:10}</style><path d="m84.9 120.1 34.2-3c.5 0 1.7-1.5 1.7-2l.9-31.8c0-.8-1-1.2-1.6-.7l-35.9 35.9c-.5.6-.1 1.6.7 1.6z" style="stroke-width:4;stroke-miterlimit:10"/><path class="st1" d="M115.1 120.5H35c-3.6 0-6.5-2.9-6.5-6.5V8.7c0-3.6 2.9-6.5 6.5-6.5h80.2c3.6 0 6.5 2.9 6.5 6.5V114c-.1 3.6-3 6.5-6.6 6.5zm2.1 9H32.8c-2.5 0-4.5-2-4.5-4.5s2-4.5 4.5-4.5h84.3c2.5 0 4.5 2 4.5 4.5s-1.9 4.5-4.4 4.5z"/><path d="M109.1 129.5v13.7c0 2.5 2 4.5 4.5 4.5s4.5-2 4.5-4.5v-13.7h-9zm-11.3 0v13.7c0 2.5 2 4.5 4.5 4.5s4.5-2 4.5-4.5v-13.7h-9zm-55.6 0v13.7c0 2.5 2 4.5 4.5 4.5s4.5-2 4.5-4.5v-13.7h-9zm-11.3 0v13.7c0 2.5 2 4.5 4.5 4.5s4.5-2 4.5-4.5v-13.7h-9z" style="stroke-miterlimit:10"/><path class="st1" d="M51.2 133.3h46.7m-47.4-12.8h49.2v10.1H50.5v-10.1zm71.2-39.4h-39v39m39-39-39 39 39-39z"/></svg>