<svg version="1.1" id="Layer_1" xmlns="http://www.w3.org/2000/svg" x="0" y="0" viewBox="0 0 24 24" style="enable-background:new 0 0 24 24" xml:space="preserve"><style>.st0{fill:#ee1c25}.st1{fill:#0b4ea2}.st2{fill:#fff}</style><path class="st0" d="M0 0h32v24H0V0z"/><path class="st1" d="M0 0h32v16H0V0z"/><path class="st2" d="M0 0h32v8H0V0z"/><path class="st2" d="M11.6 18.5c-2.1-1-5.2-3.1-5.2-7.2s.2-5.9.2-5.9h10.1s.2 1.8.2 5.9-3.1 6.2-5.3 7.2"/><path class="st0" d="M11.6 18c-2-1-4.8-2.8-4.8-6.6S7 6 7 6h9.2s.2 1.7.2 5.4c0 3.8-2.8 5.6-4.8 6.6"/><path class="st2" d="M12.1 10.4c.5 0 1.6 0 2.5-.3v1.4c-.9-.3-1.9-.3-2.5-.3v2.1h-.8v-2.1c-.6 0-1.7 0-2.5.3v-1.4c.9.3 2 .3 2.5.3V9.2c-.5 0-1.2 0-2 .3V8.1c.8.3 1.5.3 2 .3 0-.8-.3-1.9-.3-1.9h1.4s-.2 1-.3 1.9c.5 0 1.2 0 2-.3v1.4c-.6-.2-1.3-.3-2-.3v1.2z"/><path class="st1" d="M11.6 13.2c-1 0-1.5 1.4-1.5 1.4s-.3-.7-1.1-.7c-.6 0-.9.5-1.2.9 1 1.6 2.6 2.6 3.8 3.2 1.2-.6 2.9-1.6 3.8-3.2-.3-.4-.7-.9-1.2-.9-.8 0-1.1.6-1.1.6s-.5-1.3-1.5-1.3"/></svg>