<svg version="1.1" id="Layer_1" xmlns="http://www.w3.org/2000/svg" x="0" y="0" viewBox="0 0 160 160" style="enable-background:new 0 0 160 160" xml:space="preserve" fill="currentColor"><style>.st0{fill-rule:evenodd;clip-rule:evenodd}</style><path class="st0" d="M80 31.3c-26.9 0-48.7 21.8-48.7 48.7 0 26.9 21.8 48.7 48.7 48.7 26.9 0 48.7-21.8 48.7-48.7 0-26.9-21.8-48.7-48.7-48.7zm0 93.1c-24.5 0-44.4-19.9-44.4-44.4S55.5 35.6 80 35.6s44.4 19.9 44.4 44.4-19.9 44.4-44.4 44.4z"/><path class="st0" d="M70.3 46.8c3.2-.9 6.4-1.4 9.7-1.4 3.4 0 6.6.5 9.7 1.4L80 68.4l-9.7-21.6z"/><path class="st0" d="M98.5 50.9c3.6 2.3 6.8 5.3 9.4 8.8L92 94.9l-6.1-13.7H74.2L68 94.9 52.1 59.6c2.5-3.5 5.7-6.4 9.3-8.7l12.7 28.2h11.7l12.7-28.2zM46.6 71.1c-.7 2.9-1.1 5.9-1.1 8.9 0 13.5 7.8 25.2 19.1 30.9l-18-39.8z"/><path class="st0" d="M70.4 113.2c3.1.9 6.3 1.3 9.6 1.3s6.5-.5 9.5-1.3L80 92l-9.6 21.2zm25-2.3c11.3-5.7 19.1-17.4 19.1-30.9 0-3.1-.4-6-1.1-8.9l-18 39.8z"/></svg>
