<svg xmlns="http://www.w3.org/2000/svg" viewBox="0 0 160 160" style="enable-background:new 0 0 160 160" xml:space="preserve" fill="currentColor"><path d="M79.9 30c-16 0-31.8 7.7-41.4 22-3.6 5.4-6.1 11.2-7.4 17.1-2.1 9.5-1.3 19.3 2 28.2 2.7 7.4 7.3 14.2 13.4 19.8 1.7 1.5 3.6 3 5.6 4.3 19.5 13.1 44.8 10.7 61.5-4.3 2.9-2.7 5.6-5.7 7.9-9.2 2.3-3.4 4.1-6.9 5.5-10.6 3.4-9.2 4-19 1.9-28.2-2.9-12-10-23.1-21.1-30.6-8.6-5.7-18.3-8.5-27.9-8.5zm0 4c8.8 0 17.8 2.5 25.7 7.9 9.9 6.7 16.4 16.5 19 27.3 2.2 9.2 1.6 19.1-2.1 28.2-1.2 2.9-2.6 5.6-4.4 8.3-3.1 4.6-6.9 8.4-11.1 11.5-15.2 11-36.2 12-52.7.9-.4-.3-.9-.6-1.3-.9-7.2-5.3-12.4-12.2-15.6-19.8-3.6-8.9-4.4-18.8-2.1-28.2 1.2-5.2 3.4-10.3 6.6-14.9C50.7 41.1 65.2 34 79.9 34zm.2 4.4c-13.3 0-26.3 6.4-34.3 18.2-2.6 3.9-4.5 8.1-5.7 12.5-2.5 9.5-1.6 19.5 2.5 28.2 3.1 6.6 7.9 12.4 14.3 16.8 1.7 1.1 3.4 2.1 5.2 3 11.5 5.5 24.7 5.3 35.8 0 6.4-3.1 12.1-7.8 16.4-14.2 1.2-1.8 2.3-3.7 3.2-5.6 3.6-7.7 4.7-16.1 3.4-24.1h-9c-2.1 7.2-5.9 20.3-6 20.5-.5 1.7-2.2 2.5-3.8 2.1-1.6-.4-2.6-2.2-2.2-3.9.2-.8 5.3-18.6 5.3-18.6h-4.6l-5.7 20c-.5 1.6-2.3 2.5-3.8 2.1-1.7-.5-2.6-2.2-2.1-3.9.2-.8 5.2-18.2 5.2-18.2h-8c2.3 3 2.6 7.3 1.5 11.2-1.9 6.4-6.5 10.6-12.3 10.7H48.2l-1.7-.2c-1.4-.4-2.4-1.7-2.4-3.3 0-1.4 1.7-3.5 1.7-3.5l12.4-19.1 1.1-1.7h-9.8c-1.6 0-2.8-1.4-2.8-3s1.2-2.9 2.8-3h15.6c2.1.2 3.1 2.6 2.2 4.4l-1.4 2.3-.6.9-12.9 20.4h14.1c-1.9-2.9-3.1-7.4-1.8-11.3 1.4-3.8 3.8-7.1 6.7-8.9 1.8-1.1 3.8-1.7 6-1.6h18.5l1.6-5.3c.1-.3.2-.5.3-.7.6-.9 1.9-1.9 3.6-1.4 1.3.4 2.1 1.7 2.1 3.1 0 .3 0 .6-.1.9l-1 3.4h4.7l1.5-5.3c.1-.3.2-.5.3-.7.5-.9 1.5-1.5 2.7-1.5.3 0 .6.1.9.2 1.3.4 2.2 1.6 2.2 2.9 0 .3 0 .7-.1 1l-.9 3.5h6.1c-2.7-8.7-8.3-16.5-16.4-22-7.3-5-15.4-7.3-23.3-7.3zm-3 34.4c-3.1 0-6.2 3-7.2 6.7-1.2 4.2.4 8.7 3.7 9.6 3.7 1 7.7-1.9 8.9-6.1 1.2-4.1-.6-9-4.1-10-.5-.1-.9-.2-1.3-.2z" style="fill-rule:evenodd;clip-rule:evenodd"/></svg>
