<?xml version="1.0" encoding="utf-8"?>
<!-- Generator: Adobe Illustrator 28.0.0, SVG Export Plug-In . SVG Version: 6.00 Build 0)  -->
<svg version="1.1" id="Layer_1" xmlns="http://www.w3.org/2000/svg" xmlns:xlink="http://www.w3.org/1999/xlink" x="0px" y="0px"
	 viewBox="0 0 160 160" style="enable-background:new 0 0 160 160;" xml:space="preserve">
<style type="text/css">
	.st0{fill-rule:evenodd;clip-rule:evenodd;}
</style>
<path class="st0" d="M79.9,30c-16,0-31.8,7.7-41.4,22c-3.6,5.4-6.1,11.2-7.4,17.1c-2.1,9.5-1.3,19.3,2,28.2
	c2.7,7.4,7.3,14.2,13.4,19.8c1.7,1.5,3.6,3,5.6,4.3c19.5,13.1,44.8,10.7,61.5-4.3c2.9-2.7,5.6-5.7,7.9-9.2c2.3-3.4,4.1-6.9,5.5-10.6
	c3.4-9.2,4-19,1.9-28.2c-2.9-12-10-23.1-21.1-30.6C99.2,32.8,89.5,30,79.9,30z M79.9,34c8.8,0,17.8,2.5,25.7,7.9
	c9.9,6.7,16.4,16.5,19,27.3c2.2,9.2,1.6,19.1-2.1,28.2c-1.2,2.9-2.6,5.6-4.4,8.3c-3.1,4.6-6.9,8.4-11.1,11.5
	c-15.2,11-36.2,12-52.7,0.9c-0.4-0.3-0.9-0.6-1.3-0.9c-7.2-5.3-12.4-12.2-15.6-19.8c-3.6-8.9-4.4-18.8-2.1-28.2
	c1.2-5.2,3.4-10.3,6.6-14.9C50.7,41.1,65.2,34,79.9,34z M80.1,38.4c-13.3,0-26.3,6.4-34.3,18.2c-2.6,3.9-4.5,8.1-5.7,12.5
	c-2.5,9.5-1.6,19.5,2.5,28.2c3.1,6.6,7.9,12.4,14.3,16.8c1.7,1.1,3.4,2.1,5.2,3c11.5,5.5,24.7,5.3,35.8,0
	c6.4-3.1,12.1-7.8,16.4-14.2c1.2-1.8,2.3-3.7,3.2-5.6c3.6-7.7,4.7-16.1,3.4-24.1h-9c-2.1,7.2-5.9,20.3-6,20.5
	c-0.5,1.7-2.2,2.5-3.8,2.1c-1.6-0.4-2.6-2.2-2.2-3.9c0.2-0.8,5.3-18.6,5.3-18.6h-4.6l-5.7,20c-0.5,1.6-2.3,2.5-3.8,2.1
	c-1.7-0.5-2.6-2.2-2.1-3.9c0.2-0.8,5.2-18.2,5.2-18.2h-8c2.3,3,2.6,7.3,1.5,11.2c-1.9,6.4-6.5,10.6-12.3,10.7H48.2L46.5,95
	c-1.4-0.4-2.4-1.7-2.4-3.3c0-1.4,1.7-3.5,1.7-3.5l12.4-19.1l1.1-1.7h-9.8c-1.6,0-2.8-1.4-2.8-3s1.2-2.9,2.8-3h15.6
	c2.1,0.2,3.1,2.6,2.2,4.4l-1.4,2.3L65.3,69L52.4,89.4h14.1c-1.9-2.9-3.1-7.4-1.8-11.3c1.4-3.8,3.8-7.1,6.7-8.9
	c1.8-1.1,3.8-1.7,6-1.6h18.5l1.6-5.3c0.1-0.3,0.2-0.5,0.3-0.7c0.6-0.9,1.9-1.9,3.6-1.4c1.3,0.4,2.1,1.7,2.1,3.1c0,0.3,0,0.6-0.1,0.9
	l-1,3.4h4.7l1.5-5.3c0.1-0.3,0.2-0.5,0.3-0.7c0.5-0.9,1.5-1.5,2.7-1.5c0.3,0,0.6,0.1,0.9,0.2c1.3,0.4,2.2,1.6,2.2,2.9
	c0,0.3,0,0.7-0.1,1l-0.9,3.5h6.1c-2.7-8.7-8.3-16.5-16.4-22C96.1,40.7,88,38.4,80.1,38.4L80.1,38.4z M77.1,72.8
	c-3.1,0-6.2,3-7.2,6.7c-1.2,4.2,0.4,8.7,3.7,9.6c3.7,1,7.7-1.9,8.9-6.1c1.2-4.1-0.6-9-4.1-10C77.9,72.9,77.5,72.8,77.1,72.8z"/>
</svg>
