<svg xmlns="http://www.w3.org/2000/svg" viewBox="0 0 45 45" style="enable-background:new 0 0 45 45" xml:space="preserve"><path d="M.2 38.1h19.1c4.4-2.2 7.1-5.3 7.1-8.8 0-6.4-7.6-8.2-7.6-13.2 0-4.7 8-8.6 18.3-9.2h-.4c-12.8 0-22.9 5.6-22.9 10.6 0 3.5 3 5.2 3 9.1.1 5.4-6.9 9.9-16.6 11.5" style="fill:#fff"/><path d="M33.7 30.9c0 2.6-1.4 5.1-3.8 7.2h13.6c.8-1.5 1.3-3.1 1.3-4.8 0-12-18.6-13.5-18.6-18.6 0-3.4 5.6-6.4 13.4-7.5-10.4.8-18.2 4.2-18.2 8.4 0 4.6 12.3 7.7 12.3 15.3" style="fill:#ed1b29"/></svg>